{
	"asset":{
		"generator":"Khronos glTF Blender I/O v4.2.60",
		"version":"2.0"
	},
	"extensionsUsed":[
		"KHR_materials_clearcoat",
		"KHR_materials_specular",
		"KHR_materials_ior",
		"KHR_materials_sheen"
	],
	"scene":0,
	"scenes":[
		{
			"name":"Scene",
			"nodes":[
				0
			]
		}
	],
	"nodes":[
		{
			"mesh":0,
			"name":"Astronut",
			"rotation":[
				0,
				-0.7071068286895752,
				0,
				0.7071068286895752
			],
			"scale":[
				1.6326916217803955,
				1.6326916217803955,
				1.6326916217803955
			]
		}
	],
	"materials":[
		{
			"doubleSided":true,
			"extensions":{
				"KHR_materials_clearcoat":{
					"clearcoatFactor":0.25
				}
			},
			"name":"Glass",
			"pbrMetallicRoughness":{
				"baseColorFactor":[
					0,
					0,
					0,
					1
				],
				"metallicFactor":0,
				"roughnessFactor":0.20000000298023224
			}
		},
		{
			"doubleSided":true,
			"extensions":{
				"KHR_materials_clearcoat":{
					"clearcoatFactor":0.25
				}
			},
			"name":"Prop",
			"pbrMetallicRoughness":{
				"baseColorFactor":[
					0.827555775642395,
					0.827555775642395,
					0.827555775642395,
					1
				],
				"metallicFactor":0,
				"roughnessFactor":0.25
			}
		},
		{
			"doubleSided":true,
			"extensions":{
				"KHR_materials_specular":{
					"specularColorFactor":[
						2.0,
						2.0,
						2.0
					]
				},
				"KHR_materials_sheen":{
					"sheenColorFactor":[
						1.0,
						1.0,
						1.0
					],
					"sheenRoughnessFactor":0.5
				},
				"KHR_materials_ior":{
					"ior":1.4500000476837158
				}
			},
			"name":"Body",
			"pbrMetallicRoughness":{
				"baseColorFactor":[
					0.8000000715255737,
					0.7914934754371643,
					0.7662912607192993,
					1
				],
				"metallicFactor":0,
				"roughnessFactor":0.5409836173057556
			}
		}
	],
	"meshes":[
		{
			"name":"Cube.002",
			"primitives":[
				{
					"attributes":{
						"POSITION":0,
						"NORMAL":1,
						"TEXCOORD_0":2,
						"TEXCOORD_1":3
					},
					"indices":4,
					"material":0
				},
				{
					"attributes":{
						"POSITION":5,
						"NORMAL":6,
						"TEXCOORD_0":7,
						"TEXCOORD_1":8
					},
					"indices":9,
					"material":1
				},
				{
					"attributes":{
						"POSITION":10,
						"NORMAL":11,
						"TEXCOORD_0":12,
						"TEXCOORD_1":13
					},
					"indices":14,
					"material":2
				}
			]
		}
	],
	"accessors":[
		{
			"bufferView":0,
			"componentType":5126,
			"count":475,
			"max":[
				0.21099558472633362,
				0.9489015936851501,
				0.17244821786880493
			],
			"min":[
				0.06959753483533859,
				0.6488767862319946,
				-0.17244821786880493
			],
			"type":"VEC3"
		},
		{
			"bufferView":1,
			"componentType":5126,
			"count":475,
			"type":"VEC3"
		},
		{
			"bufferView":2,
			"componentType":5126,
			"count":475,
			"type":"VEC2"
		},
		{
			"bufferView":3,
			"componentType":5126,
			"count":475,
			"type":"VEC2"
		},
		{
			"bufferView":4,
			"componentType":5123,
			"count":2592,
			"type":"SCALAR"
		},
		{
			"bufferView":5,
			"componentType":5126,
			"count":10826,
			"max":[
				0.1721295565366745,
				0.9970187544822693,
				0.19949717819690704
			],
			"min":[
				-0.17130990326404572,
				0.37308552861213684,
				-0.19949717819690704
			],
			"type":"VEC3"
		},
		{
			"bufferView":6,
			"componentType":5126,
			"count":10826,
			"type":"VEC3"
		},
		{
			"bufferView":7,
			"componentType":5126,
			"count":10826,
			"type":"VEC2"
		},
		{
			"bufferView":8,
			"componentType":5126,
			"count":10826,
			"type":"VEC2"
		},
		{
			"bufferView":9,
			"componentType":5123,
			"count":51480,
			"type":"SCALAR"
		},
		{
			"bufferView":10,
			"componentType":5126,
			"count":13186,
			"max":[
				0.1766948699951172,
				0.6341525316238403,
				0.49013033509254456
			],
			"min":[
				-0.09370484203100204,
				0.000869007024448365,
				-0.49013033509254456
			],
			"type":"VEC3"
		},
		{
			"bufferView":11,
			"componentType":5126,
			"count":13186,
			"type":"VEC3"
		},
		{
			"bufferView":12,
			"componentType":5126,
			"count":13186,
			"type":"VEC2"
		},
		{
			"bufferView":13,
			"componentType":5126,
			"count":13186,
			"type":"VEC2"
		},
		{
			"bufferView":14,
			"componentType":5123,
			"count":56880,
			"type":"SCALAR"
		}
	],
	"bufferViews":[
		{
			"buffer":0,
			"byteLength":5700,
			"byteOffset":0,
			"target":34962
		},
		{
			"buffer":0,
			"byteLength":5700,
			"byteOffset":5700,
			"target":34962
		},
		{
			"buffer":0,
			"byteLength":3800,
			"byteOffset":11400,
			"target":34962
		},
		{
			"buffer":0,
			"byteLength":3800,
			"byteOffset":15200,
			"target":34962
		},
		{
			"buffer":0,
			"byteLength":5184,
			"byteOffset":19000,
			"target":34963
		},
		{
			"buffer":0,
			"byteLength":129912,
			"byteOffset":24184,
			"target":34962
		},
		{
			"buffer":0,
			"byteLength":129912,
			"byteOffset":154096,
			"target":34962
		},
		{
			"buffer":0,
			"byteLength":86608,
			"byteOffset":284008,
			"target":34962
		},
		{
			"buffer":0,
			"byteLength":86608,
			"byteOffset":370616,
			"target":34962
		},
		{
			"buffer":0,
			"byteLength":102960,
			"byteOffset":457224,
			"target":34963
		},
		{
			"buffer":0,
			"byteLength":158232,
			"byteOffset":560184,
			"target":34962
		},
		{
			"buffer":0,
			"byteLength":158232,
			"byteOffset":718416,
			"target":34962
		},
		{
			"buffer":0,
			"byteLength":105488,
			"byteOffset":876648,
			"target":34962
		},
		{
			"buffer":0,
			"byteLength":105488,
			"byteOffset":982136,
			"target":34962
		},
		{
			"buffer":0,
			"byteLength":113760,
			"byteOffset":1087624,
			"target":34963
		}
	],
	"buffers":[
		{
			"byteLength":1201384,
			"uri":"phihanhgia.bin"
		}
	]
}
